<svg width="22" height="22" viewBox="0 0 22 22" fill="none" xmlns="http://www.w3.org/2000/svg">
<path d="M3.79411 3.57153C3.84466 2.67735 4.05825 2.28852 4.67078 1.97627C5.32985 1.64019 6.36934 1.79659 7.5925 2.41598C8.11934 2.68289 8.17298 2.68833 9.09628 2.56995C10.3235 2.41255 11.9035 2.4131 13.0362 2.57139C13.8928 2.6911 13.9491 2.68512 14.4772 2.41765C16.2134 1.53844 17.5841 1.59597 18.0805 2.56884C18.3282 3.05445 18.3742 4.31451 18.1821 5.35378C18.0756 5.92994 18.0869 6.00188 18.3435 6.37997C20.1488 9.04032 18.848 13.3526 15.7545 14.9619C15.5178 15.0851 15.3183 15.1613 15.1557 15.2234C14.6565 15.414 14.505 15.4719 14.6885 16.3493C14.7768 16.7714 14.8833 17.8207 14.9251 18.6813C15.0007 20.2368 14.9996 20.2477 14.7268 20.565C14.3554 20.9967 13.8202 21.004 13.4575 20.5823C13.2209 20.3073 13.1978 20.1774 13.1978 19.1164C13.1978 17.5484 13.026 16.5063 12.6199 15.6132C12.137 14.5504 12.495 14.1542 13.5993 13.9167C15.1343 13.5865 16.3332 12.6392 17.0014 11.2285C17.6367 9.8875 17.7325 8.03439 16.5839 6.90736C16.2572 6.51919 16.2345 6.16759 16.4677 5.10737C16.5549 4.71111 16.628 4.1999 16.6301 3.97123C16.6334 3.6101 16.6005 3.55557 16.3787 3.55557C16.2384 3.55557 15.7021 3.75974 15.1872 4.00925L14.3653 4.4076C14.2906 4.4438 14.207 4.45773 14.1245 4.44827C12.0347 4.20839 10.0489 4.20468 7.94882 4.4492C7.86604 4.45884 7.78207 4.44492 7.70709 4.40853L6.88565 4.00992C6.37067 3.75996 5.83441 3.55557 5.69409 3.55557C5.36964 3.55557 5.36476 3.7951 5.66049 5.21821C5.84114 6.08736 5.96271 6.28102 5.44048 6.97597C4.6577 8.01768 4.46217 9.31122 4.88193 10.6703C5.41099 12.383 6.70653 13.54 8.52791 13.926C9.62588 14.1588 9.91286 14.4624 9.49359 15.7214C9.16356 16.7122 8.95488 16.9676 8.47525 16.9676C7.82992 16.9676 7.42568 16.4086 7.64814 15.8236C7.74613 15.5658 7.71698 15.5383 7.11244 15.3178C5.267 14.645 3.85552 13.1369 3.21019 11.1484C2.7114 9.6115 2.93087 7.6111 3.73105 6.40203C4.0035 5.99035 4.00772 5.95544 3.88057 5.16734C3.80864 4.7212 3.76973 4.00315 3.79411 3.57153Z" fill="#1B00BF"/>
<path d="M3.14949 14.8142C2.88356 14.4154 2.34461 14.3075 1.94572 14.5735C1.54683 14.8394 1.43903 15.3784 1.70496 15.7773C1.90129 16.0718 2.13616 16.3137 2.33561 16.5131C2.37238 16.5499 2.40811 16.5854 2.443 16.62C2.61007 16.786 2.75759 16.9325 2.90575 17.1065C3.23345 17.4911 3.56037 18.0092 3.74617 18.9382C3.82893 19.352 4.12637 19.5749 4.29118 19.6723C4.46991 19.7779 4.6652 19.8401 4.8259 19.8806C5.15464 19.9635 5.55371 20.0066 5.93244 20.0317C6.34821 20.0593 6.7987 20.0682 7.20154 20.0707C7.20184 20.5497 7.59036 20.9381 8.06959 20.9381C8.54901 20.9381 8.93764 20.5495 8.93764 20.07V19.202C8.93764 18.7226 8.54901 18.3339 8.06959 18.3339C7.98776 18.3339 7.89922 18.3342 7.80545 18.3345C7.29602 18.3361 6.632 18.3381 6.04719 18.2994C5.76519 18.2807 5.53336 18.2542 5.36336 18.2219C5.10158 17.1942 4.67865 16.5104 4.22736 15.9806C4.02786 15.7465 3.82128 15.5417 3.65325 15.375C3.62179 15.3438 3.59169 15.314 3.56323 15.2855C3.36935 15.0917 3.24252 14.9538 3.14949 14.8142Z" fill="#1B00BF"/>
</svg>
