<svg width="21" height="22" viewBox="0 0 21 22" fill="none" xmlns="http://www.w3.org/2000/svg">
<path d="M10.4853 5.99494C7.49618 5.99494 5.11422 8.42361 5.11422 11.366C5.11422 14.3552 7.49618 16.7371 10.4853 16.7371C13.4277 16.7371 15.8564 14.3552 15.8564 11.366C15.8564 8.42361 13.4277 5.99494 10.4853 5.99494ZM10.4853 14.8689C8.5704 14.8689 6.98242 13.3277 6.98242 11.366C6.98242 9.45112 8.52369 7.90985 10.4853 7.90985C12.4002 7.90985 13.9415 9.45112 13.9415 11.366C13.9415 13.3277 12.4002 14.8689 10.4853 14.8689ZM17.3043 5.80812C17.3043 5.10754 16.7438 4.54708 16.0432 4.54708C15.3426 4.54708 14.7822 5.10754 14.7822 5.80812C14.7822 6.5087 15.3426 7.06916 16.0432 7.06916C16.7438 7.06916 17.3043 6.5087 17.3043 5.80812ZM20.8539 7.06916C20.7604 5.38777 20.3868 3.89321 19.1725 2.67887C17.9581 1.46454 16.4636 1.0909 14.7822 0.997487C13.0541 0.904077 7.86982 0.904077 6.14173 0.997487C4.46034 1.0909 3.01248 1.46454 1.75144 2.67887C0.537109 3.89321 0.163468 5.38777 0.0700577 7.06916C-0.0233526 8.79725 -0.0233526 13.9815 0.0700577 15.7096C0.163468 17.391 0.537109 18.8389 1.75144 20.0999C3.01248 21.3142 4.46034 21.6879 6.14173 21.7813C7.86982 21.8747 13.0541 21.8747 14.7822 21.7813C16.4636 21.6879 17.9581 21.3142 19.1725 20.0999C20.3868 18.8389 20.7604 17.391 20.8539 15.7096C20.9473 13.9815 20.9473 8.79725 20.8539 7.06916ZM18.612 17.5311C18.2851 18.4652 17.5378 19.1658 16.6504 19.5394C15.2492 20.0999 11.9799 19.9598 10.4853 19.9598C8.94404 19.9598 5.67468 20.0999 4.32023 19.5394C3.38612 19.1658 2.68555 18.4652 2.31191 17.5311C1.75144 16.1767 1.89156 12.9073 1.89156 11.366C1.89156 9.87147 1.75144 6.60211 2.31191 5.20095C2.68555 4.31355 3.38612 3.61298 4.32023 3.23934C5.67468 2.67887 8.94404 2.81899 10.4853 2.81899C11.9799 2.81899 15.2492 2.67887 16.6504 3.23934C17.5378 3.56627 18.2384 4.31355 18.612 5.20095C19.1725 6.60211 19.0324 9.87147 19.0324 11.366C19.0324 12.9073 19.1725 16.1767 18.612 17.5311Z" fill="#1B00BF"/>
</svg>
