<svg width="21" height="19" viewBox="0 0 21 19" fill="none" xmlns="http://www.w3.org/2000/svg">
<path fill-rule="evenodd" clip-rule="evenodd" d="M20.7189 2.40934C21.0067 1.00037 19.6285 -0.170509 18.2925 0.347859L1.91548 6.7019C0.423481 7.28077 0.357001 9.37587 1.80926 10.0489L5.37572 11.7019L7.07234 17.6649C7.16046 17.9747 7.40523 18.2145 7.71575 18.2953C8.02628 18.3761 8.3562 18.2859 8.58303 18.0581L11.1965 15.4336L14.8574 18.1909C15.9201 18.9912 17.4507 18.4083 17.7176 17.1015L20.7189 2.40934ZM2.56806 8.398L18.9451 2.04396L15.9439 16.7362L11.6548 13.5059C11.2944 13.2344 10.79 13.2704 10.4714 13.5903L9.35202 14.7144L9.68835 12.8569L16.2785 6.23916C16.5992 5.9171 16.6331 5.40641 16.3578 5.04445C16.0825 4.68248 15.583 4.58096 15.1892 4.80694L6.088 10.0294L2.56806 8.398ZM7.19769 11.4868L7.74668 13.4164L7.95745 12.2522C7.9904 12.0703 8.07781 11.9028 8.20803 11.772L10.2178 9.7539L7.19769 11.4868Z" fill="#1B00BF"/>
</svg>
