<svg width="22" height="22" viewBox="0 0 22 22" fill="none" xmlns="http://www.w3.org/2000/svg">
<path d="M20.149 0.972717H1.53198C0.919839 0.972717 0.423828 1.46895 0.423828 2.08087V20.6979C0.423828 21.3098 0.919839 21.8061 1.53198 21.8061H20.149C20.7612 21.8061 21.2572 21.3098 21.2572 20.6979V2.08087C21.2572 1.46895 20.7612 0.972717 20.149 0.972717ZM17.0171 12.7065C17.585 13.2606 18.1854 13.7823 18.6953 14.3947C18.9209 14.6651 19.1337 14.9443 19.2957 15.2588C19.5264 15.7074 19.3181 16.2001 18.9161 16.2265L16.4214 16.2258C15.7773 16.2788 15.2645 16.0195 14.8319 15.5791C14.4872 15.2278 14.1667 14.8528 13.8345 14.49C13.6991 14.3408 13.5555 14.2006 13.3857 14.0897C13.0457 13.869 12.7503 13.9364 12.555 14.2912C12.3565 14.6525 12.3106 15.0532 12.2924 15.4559C12.2647 16.0443 12.0874 16.1979 11.4972 16.2252C10.2361 16.2846 9.03908 16.0931 7.92715 15.4576C6.94555 14.8969 6.18646 14.1048 5.52511 13.209C4.23611 11.4619 3.24896 9.54408 2.36244 7.57134C2.16275 7.12697 2.3088 6.88916 2.79838 6.88008C3.6131 6.8639 4.4276 6.86611 5.2412 6.87919C5.57276 6.88429 5.79196 7.074 5.91895 7.3865C6.35889 8.46917 6.89878 9.49931 7.57476 10.4545C7.75495 10.7088 7.9389 10.9625 8.20042 11.1423C8.48943 11.3408 8.70973 11.2755 8.84604 10.953C8.93314 10.7473 8.97081 10.5288 8.98943 10.3089C9.05415 9.55627 9.0619 8.80361 8.9502 8.05383C8.88039 7.58486 8.6162 7.28189 8.14856 7.19324C7.91053 7.14803 7.94533 7.05982 8.06102 6.92396C8.26182 6.68859 8.45109 6.5432 8.82698 6.5432L11.6463 6.54275C12.0909 6.62963 12.1898 6.8291 12.2503 7.27657L12.253 10.4089C12.2483 10.5822 12.3396 11.0955 12.6508 11.209C12.8997 11.2912 13.0648 11.0915 13.2137 10.9333C13.8893 10.2163 14.3706 9.36944 14.8022 8.49333C14.9921 8.10703 15.1568 7.70676 15.3163 7.30627C15.4345 7.00995 15.6193 6.86412 15.9535 6.86944L18.6676 6.87232C18.7474 6.87232 18.8292 6.8732 18.9083 6.88628C19.3653 6.96496 19.4905 7.16177 19.3494 7.60813C19.1268 8.30915 18.6936 8.89337 18.2698 9.47892C17.817 10.105 17.3336 10.7105 16.8842 11.3397C16.4724 11.9169 16.5056 12.2068 17.0171 12.7065Z" fill="#1B00BF"/>
</svg>
